<svg version="1.1" baseProfile="tiny" id="Layer_1" xmlns="http://www.w3.org/2000/svg" xmlns:xlink="http://www.w3.org/1999/xlink"
	 x="0px" y="0px" width="512px" height="512px" viewBox="0 0 512 512" xml:space="preserve">
<g>
	<path fill="#FFFFFF" d="M454.112,182.518c-51.312,11.335-52.999-18.891-129.737-25.876
		c-103.289-9.413-191.034,34.933-260.59,39.517c-15.113,0.994-13.397,13.848-2.588,16.22c26.055,6.741,53.084,6.459,77.873,3.544
		c-0.863,2.025-1.754,5.128,0.965,7.594c9.638,8.663,48.987,10.125,66.285,9.45c5.869-0.234,18.422-1.209,18.422-1.209
		c-3.581,0.281-9.356,11.288,2.391,14.653c72.556,22.201,106.261,56.505,144.691,110.254c16.06-1.78,31.482-21.159,25.323-36.281
		l3.338-7.998l11.896-5.354l-2.896-26.954l18.132-8.288c0,0,29.392-76.269,31.136-81.829
		C460.497,184.412,457.15,181.861,454.112,182.518z M62.686,204.918c68.647-8.129,121.261-30.264,185.099-38.261l3.75,22.604
		C200.917,191.353,139.705,219.384,62.686,204.918z M149.163,219.834c40.361-0.346,70.822-13.566,104.189-19.707l3.094,19.398
		C228.413,222.366,195.814,229.744,149.163,219.834z M420.57,266.236l-20.4,8.091l2.925,27.555l-10.904,4.95l-0.29,5.691
		l-4.21,8.746c3.919,5.035,2.813,18.948-13.004,25.445c-21.919-29.13-54.114-81.548-144.184-107.489
		c25.66-2.138,45.996-13.463,87.013-8.129c-19.473-12.647-37.539-13.697-58.09-11.841l-2.86-19.735
		c12.883-2.185,26.056-3.178,40.662-1.988c-13.191-6.422-27.161-8.625-42.059-8.381l-3.215-22.998
		c22.323-2.56,46.071-3.347,72.378-1.182c64.605,5.307,78.8,35.571,124.439,26.814L420.57,266.236z"/>
	<path fill="#DA2128" d="M247.785,166.657c-63.838,7.997-116.452,30.132-185.099,38.261
		c77.019,14.466,138.231-13.566,188.849-15.657L247.785,166.657z"/>
	<path fill="#0D2240" d="M324.332,164.972c-26.308-2.165-50.056-1.378-72.378,1.182l3.215,22.998
		c14.897-0.244,28.867,1.959,42.059,8.381c-14.606-1.19-27.779-0.197-40.662,1.988l2.86,19.735
		c20.551-1.856,38.617-0.806,58.09,11.841c-41.017-5.334-61.353,5.991-87.013,8.129c90.069,25.941,122.265,78.359,144.184,107.489
		c15.817-6.497,16.923-20.41,13.004-25.445l4.21-8.746l0.29-5.691l10.904-4.95l-2.925-27.555l20.4-8.091l28.201-74.45
		C403.132,200.543,388.938,170.279,324.332,164.972z M382.333,296.054l-2.709,2.935l7.679,3.938l-0.356,4.407l-7.585-0.6
		l-10.105,6.786l9.871-1.631l8.72,0.676l-3.338,5.672l-7.003-0.554l6.027,7.866c2.091,2.756-0.084,10.379-6.619,13.022
		c-12.449-17.203-24.656-36.808-48.808-54.752c6.788-7.97,15.394-2.653,23.57,4.818l8.963,13.838l-2.579-17.223l-22.126-19.2
		c4.322-13.22,33.246-11.888,39.03-3.301c-10.557-1.564-16.2,2.044-19.924,10.248l25.398,2.016
		c2.213-8.335,7.032-11.278,12.695-10.473l3.524,32.702L382.333,296.054z M407.312,228.829l1.275,22.117l-14.307-18.938
		l-22.015,4.856l13.84-15.844l-10.904-15.301l18.582,6.9l11.109-11.466l1.51,16.398l17.936,7.256L407.312,228.829z"/>
	<path fill="#DA2128" d="M253.352,200.127c-33.367,6.141-63.828,19.361-104.189,19.707c46.652,9.91,79.25,2.532,107.283-0.309
		L253.352,200.127z"/>
	<path fill="#D1D3D4" d="M380.439,275.016L355.041,273c3.724-8.204,9.367-11.812,19.924-10.248
		c-5.784-8.587-34.708-9.919-39.03,3.301l22.126,19.2l2.579,17.223l-8.963-13.838c-8.177-7.472-16.782-12.788-23.57-4.818
		c24.151,17.944,36.358,37.549,48.808,54.752c6.535-2.644,8.71-10.267,6.619-13.022l-6.027-7.866l7.003,0.554l3.338-5.672
		l-8.72-0.676l-9.871,1.631l10.105-6.786l7.585,0.6l0.356-4.407l-7.679-3.938l2.709-2.935l14.326,1.191l-3.524-32.702
		C387.472,263.737,382.652,266.681,380.439,275.016z"/>
	<polygon fill="#FFFFFF" points="404.893,201.153 393.783,212.619 375.201,205.719 386.105,221.02 372.266,236.864 394.28,232.008 
		408.587,250.946 407.312,228.829 424.338,224.807 406.402,217.551 	"/>
</g>
</svg>
