<svg version="1.1" baseProfile="tiny" id="Layer_1" xmlns="http://www.w3.org/2000/svg" xmlns:xlink="http://www.w3.org/1999/xlink"
	 x="0px" y="0px" width="512px" height="512px" viewBox="0 0 512 512" xml:space="preserve">
<path id="path14" fill="#1A321E" d="M463.362,256.044c0-56.016-91.825-116.044-206.804-116.044
	C146.48,140,49.755,200.394,49.755,256.044c0,55.651,96.725,116.046,206.804,116.046
	C371.537,372.09,463.362,312.062,463.362,256.044L463.362,256.044"/>
<path id="path16" fill="#FFFFFF" d="M336.544,195.672v12.191h19.423l0.122-0.007c1.044-0.069,2.747,0.206,3.133,0.831
	c0.334,0.585,0.228,2.691-2.448,6.876c-0.031,0.058-18.708,31.152-25.638,42.699l-27.339-43.739
	c-2.271-3.483-2.005-4.87-1.735-5.377c0.495-0.923,1.259-1.177,2.841-1.281h0.048c0.03,0,0.075,0,0.075,0h14.008v-12.192
	l-105.316-0.013v12.14h13.317c2.707,0,4.582,0.545,5.695,1.663c1.862,1.86,2.244,5.797,2.244,11.128v44.729L181.644,195.7h-52.608
	v12.753h17.276c1.833,0,3.13,0.345,3.805,1.036c1.339,1.323,1.339,4.707,1.339,7.97v70.232c0,11.623-1.24,14.814-5.801,14.853
	c0.024,0-16.759,0-16.759,0v11.245h56.396v-11.375h-15.923c-2.676,0.023-4.592-0.104-5.285-0.779
	c-1.48-1.477-1.606-7.969-1.606-13.944V225.88l72.66,88.019h11.391c0,0,0.079-97.977,0-99.714c-0.129-2.664,0.6-5.708,5.352-6.32
	h11.319c5.238-0.023,8.664,6.32,12.188,12.304c0,0,27.21,46.258,30.831,52.379v22.322c0,7.574-3.365,7.574-4.791,7.574h-12.77
	v11.381h66.94v-11.49h-12.218c-4.737-0.256-6.383-1.615-6.201-8.647c0-0.081,0-18.854,0-23.042l32.672-54.796
	c4.671-7.252,5.167-8.007,11.578-7.921c0.038,0,11.073,0,11.073,0v-12.255H336.544L336.544,195.672"/>
<path id="path18" fill="#1A321E" d="M339.588,198.716v6.104h16.249c0,0,12.031-1.001,3.509,12.377l-28.17,46.89l-29.973-47.952
	c-7.779-12.354,3.822-11.314,3.822-11.314h10.961v-6.104l-99.22-0.015v6.054h10.268c9.854,0,10.979,6.348,10.979,15.834v53.703
	l-57.877-75.548h-48.055v6.667h14.232c9.083-0.016,8.09,7.136,8.192,14.099v68.182c0,9.48-0.395,17.832-8.825,17.893h-13.739v5.16
	h50.309v-5.293h-12.881c-8.612,0.072-9.936-1.24-9.936-17.76v-71.022l77.153,94.185h6.3V219.92c0-9.479,0.185-14.741,8.993-15.1
	h12.525c6.694,0.484,10.245,8.22,14.972,16.329l29.871,50.565v23.15c0,7.197-2.817,10.621-7.822,10.621h-9.721v5.291h60.85v-5.405
	h-9.273c-7.427-0.379-9.346-4.206-9.146-11.774v-23.793l30.779-51.986c6.876-10.323,7.257-13.064,16.556-12.938h7.993v-6.166
	H339.588L339.588,198.716"/>
<path id="path20" fill="#1A321E" d="M303.384,312.287c0-13.766-20.798-28.518-46.825-28.518c-24.924,0-46.832,14.842-46.832,28.518
	c0,13.668,21.907,28.506,46.832,28.506C282.584,340.795,303.384,326.048,303.384,312.287L303.384,312.287"/>
<path id="path22" fill="#FFFFFF" d="M300.242,310.75c-1.521-11.781-20.348-23.827-43.684-23.827
	c-22.337,0-42.069,12.109-43.687,23.827H300.242L300.242,310.75"/>
<path id="path24" fill="#FFFFFF" d="M212.872,313.792c1.591,11.726,21.337,23.854,43.687,23.854
	c23.347,0,42.191-12.063,43.703-23.854H212.872L212.872,313.792"/>
<path id="path26" fill="#1A321E" d="M240.761,322.463c-5.918,0-10.727-4.559-10.727-10.174c0-5.625,4.808-10.182,10.727-10.182
	h31.594c5.918,0,10.71,4.557,10.71,10.182c0,5.616-4.79,10.174-10.71,10.174H240.761L240.761,322.463"/>
<path id="path28" fill="#FFFFFF" d="M274.004,307.75c-0.072-0.307-0.141-0.6-0.227-0.902h-2.988
	c0.117,0.316,0.197,0.641,0.281,0.966c0.242,0.957,0.411,1.942,0.494,2.952h-5.342c-0.078-0.939-0.225-1.861-0.438-2.717
	l-2.889,0.037c0.27,0.859,0.451,1.754,0.555,2.678h-5.402v-2.548h-2.987v2.548h-5.411c0.112-0.925,0.278-1.82,0.55-2.678
	l-2.878-0.037c-0.208,0.855-0.348,1.775-0.436,2.717h-5.354c0.098-1.01,0.251-1.995,0.509-2.952c0.08-0.325,0.168-0.649,0.266-0.966
	h-2.985c-0.072,0.303-0.144,0.596-0.212,0.902c-0.339,1.484-0.509,3.027-0.509,4.619c0,1.852,0.237,3.646,0.676,5.364l3.007,0.034
	c-0.395-1.268-0.653-2.59-0.766-3.957h5.355c0.07,0.945,0.224,1.893,0.449,2.795l2.834-0.035c-0.267-0.891-0.437-1.82-0.524-2.76
	h5.428v2.635h2.987v-2.635h5.424c-0.084,0.939-0.264,1.869-0.529,2.76l2.842,0.035c0.227-0.904,0.381-1.85,0.451-2.795h5.354
	c-0.113,1.364-0.366,2.689-0.761,3.957l2.987-0.034c0.45-1.718,0.697-3.513,0.697-5.364
	C274.515,310.777,274.328,309.236,274.004,307.75L274.004,307.75"/>
<path id="path30" fill="#1A321E" d="M392.828,235.808c-3.096-5.856-11.283-9.196-23.661-9.667
	c-9.101-0.297-16.233,0.173-21.889,1.626l-148.922,0.064c4.327-8.097,7.612-14.225,7.612-14.225h-36.727l-25.224,47.466
	c-2.044,2.997-2.328,3.173-4.426,2.946c-0.6-0.057-1.009-0.148-1.281-0.227c0.38-1.303,1.874-3.828,2.425-4.744
	c-0.016,0.031,8.777-14.441,8.777-14.441h-34.247l-1.026,1.417c-9.403,12.952-12.191,23.395-8.259,31.029
	c3.761,7.336,13.008,11.014,27.479,10.922c14.6-0.083,23.788-0.775,31.1-5.546h74.297l19.148-35.759h16.509l-19.056,35.695h37.922
	l11.921-22.363h16.054l-0.834,2.031c-2.93,7.205-1.354,11.976,0.478,14.711c3.596,5.353,11.317,8.074,22.945,8.101
	c19.585-0.042,32.088-1.836,38.073-10.952c4.96-7.53,5.694-14.385,2.086-19.32c-0.987-1.392-2.561-2.605-4.426-3.649h10.797
	l1.015-1.621C395.281,243.199,394.31,238.598,392.828,235.808L392.828,235.808"/>
<path id="path32" fill="#FFFFFF" d="M143.412,248.032h-26.395c-17.746,24.415-9.036,36.676,16.431,36.521
	c23.181-0.141,31.329-1.626,40.993-19.294l25.805-48.228h-28.935l-24.367,45.82c-2.281,3.353-3.562,5.017-7.708,4.577
	c-6.562-0.687-4.776-4.527-1.449-10.129L143.412,248.032L143.412,248.032"/>
<path id="path34" fill="#FFFFFF" d="M261.182,278.936h30.144l19-35.394h13.891l6.652-12.35h-61.021l-6.499,12.058h16.871
	L261.182,278.936"/>
<path id="path36" fill="#FFFFFF" d="M323.692,263.328c-4.605,11.322,2.366,18.052,20.264,18.09
	c19.368-0.037,30.213-1.822,35.205-9.408c3.398-5.159,5.339-11.127,2.167-15.43c-2.167-3.103-9.974-5.803-17.358-7.239
	c-4.707-0.916-6.359-2.044-6.035-4.819c0.299-2.521,3.441-3.109,5.796-2.417c1.901,0.557,2.73,2.924,2.426,5.397h22.422
	c6.07-9.773-0.962-17.231-19.55-17.932c-22.998-0.756-31.762,3.48-36.396,15.192c-2.312,5.424-1.932,9.603,1.436,11.817
	c4.201,2.753,15.823,4.502,19.29,5.783c2.101,0.783,2.395,3.359,1.214,4.883c-1.382,1.748-4.681,2.58-6.769,0.959
	c-1.432-1.113-1.194-2.496-1.677-4.877H323.692L323.692,263.328"/>
<path id="path38" fill="#FFFFFF" d="M179.108,279.007H236.8l6.47-12.063h-31.567l3.028-5.783h28.074l6.596-12.297h-26.395
	l2.648-5.553h28.537l6.423-12.056h-55.941L179.108,279.007"/>
</svg>
